<?xml version="1.0" encoding="UTF-8"?>
<svg width="24" height="24" version="1.1" viewBox="0 0 6.35 6.35" xmlns="http://www.w3.org/2000/svg">
 <g transform="translate(-54.419 -160.69)">
  <g transform="matrix(.093166 0 0 .093166 51.265 148.98)">
   <g transform="translate(-1.1339 65.012)" stroke="#013c5d">
    <rect x="43.089" y="74.644" width="49.704" height="36.203" ry="0" fill="none"/>
    <path transform="scale(.26458)" d="m195.71 231.09c-18.203 0-32.857 14.655-32.857 32.857v18.594l187.86 0.56445v-19.158c0-18.203-14.655-32.857-32.857-32.857z" fill="#008000" stroke-width="3.7795"/>
    <g fill="none">
     <path d="m43.278 98.751h49.893"/>
     <path d="m42.711 86.845h50.46"/>
     <path d="m54.996 74.939v35.53"/>
     <path d="m67.696 74.939v35.53"/>
     <path d="m80.925 74.939v35.53"/>
    </g>
   </g>
   <g transform="translate(-58.964 23.435)" fill="#000000" font-family="'Cambria Math'" letter-spacing="0px" stroke-width=".26458" word-spacing="0px">
    <text x="127.37797" y="165.84227" font-size="50.8px" style="line-height:1.25" xml:space="preserve"><tspan x="127.37797" y="165.84227" font-family="'Cambria Math'" font-size="50.8px" stroke-width=".26458">f</tspan></text>
    <text x="141.3631" y="170.37798" font-size="10.583px" style="line-height:1.25" xml:space="preserve"><tspan x="141.3631" y="170.37798" font-size="25.4px" stroke-width=".26458">x</tspan></text>
   </g>
  </g>
 </g>
</svg>
