<?xml version="1.0" encoding="UTF-8"?>
<svg width="60.767mm" height="59.889mm" version="1.1" viewBox="0 0 60.767 59.889" xmlns="http://www.w3.org/2000/svg">
 <defs>
  <filter id="filter882" color-interpolation-filters="sRGB">
   <feOffset dx="3" dy="3"/>
   <feGaussianBlur result="blur" stdDeviation="3"/>
   <feFlood flood-color="rgb(0,0,0)" result="flood"/>
   <feComposite in="flood" in2="SourceGraphic" operator="in" result="composite"/>
   <feBlend in="blur" in2="composite"/>
  </filter>
 </defs>
 <g transform="translate(-235.66 -101.12)">
  <g transform="translate(58.265 -35.814)">
   <g transform="matrix(.54511 0 0 .54511 144.18 32.558)">
    <rect x="133.61" y="213.28" width="12.7" height="35.53" fill="#4afa4a"/>
    <g transform="translate(78.619 138.34)" stroke="#013c5d">
     <rect x="43.089" y="74.644" width="49.704" height="36.203" ry="0" fill="none" stroke-width="2"/>
     <path transform="scale(.26458)" d="m195.71 231.09c-18.203 0-32.857 14.655-32.857 32.857v18.594l187.86 0.56445v-19.158c0-18.203-14.655-32.857-32.857-32.857z" fill="#008000" stroke-width="7.5591"/>
     <g fill="none" stroke-width="2">
      <path d="m43.278 98.751h49.893"/>
      <path d="m42.711 86.845h50.46"/>
      <path d="m54.996 74.939v35.53"/>
      <path d="m67.696 74.939v35.53"/>
      <path d="m80.925 74.939v35.53"/>
     </g>
    </g>
   </g>
   <g transform="translate(63.243 14.509)" fill="#000000" filter="url(#filter882)" font-family="'Cambria Math'" letter-spacing="0px" word-spacing="0px">
    <text x="127.37797" y="165.84227" font-size="50.8px" stroke-width=".26458" style="line-height:1.25" xml:space="preserve"><tspan x="127.37797" y="165.84227" font-family="Georgia" font-size="50.8px" font-style="italic" stroke-width=".26458">f</tspan></text>
    <text x="141.27852" y="177.32698" font-size="16.597px" stroke-width=".41493" style="line-height:1.25" xml:space="preserve"><tspan x="141.27852" y="177.32698" font-family="Georgia" font-size="39.834px" stroke-width=".41493">x</tspan></text>
   </g>
  </g>
 </g>
</svg>
